<?xml version="1.0" encoding="iso-8859-1"?>
<!-- Uploaded to: SVG Repo, www.svgrepo.com, Generator: SVG Repo Mixer Tools -->
<svg fill="#000000" height="800px" width="800px" version="1.1" id="Layer_1" xmlns="http://www.w3.org/2000/svg" xmlns:xlink="http://www.w3.org/1999/xlink" 
	 viewBox="0 0 512.002 512.002" xml:space="preserve">
<g>
	<g>
		<g>
			<path d="M474.517,318.118c-0.517-6.299-3.719-12.103-8.751-15.889c10.275-41.739,9.652-76.083,9.16-86.263
				c-0.074-25.46-4.565-50.389-13.346-74.104c-1.551-4.19-6.207-6.333-10.398-4.778c-4.19,1.551-6.33,6.207-4.778,10.398
				c8.138,21.98,12.291,45.099,12.34,68.711c0,0.128,0.003,0.256,0.01,0.383c0.457,9.219,1.104,40.907-8.236,79.902l-18.318-4.909
				c8.99-37.883,8.026-68.186,7.719-74.182l-0.016-0.327c-0.008-0.146-0.011-0.292-0.011-0.437
				c0-43.163-15.222-82.843-40.57-113.969l13.436-13.438c8.997,10.876,16.95,22.8,23.643,35.682c2.06,3.966,6.947,5.51,10.91,3.45
				c3.966-2.06,5.511-6.945,3.45-10.91c-8.532-16.423-19.128-31.604-31.433-45.245c-0.064-0.076-0.121-0.155-0.189-0.23
				c-0.161-0.178-0.328-0.35-0.49-0.526c-0.908-0.998-1.828-1.985-2.755-2.966c-0.511-0.541-1.027-1.077-1.544-1.612
				c-0.982-1.017-1.966-2.032-2.967-3.03c-0.25-0.249-0.506-0.492-0.757-0.74c-3.767-3.718-7.673-7.297-11.708-10.735
				c-0.098-0.083-0.195-0.167-0.293-0.25c-8.147-6.917-16.8-13.269-25.942-18.948C340.355,13.071,303.35,1.975,265.297,0.884
				c-0.355-0.011-0.711-0.019-1.067-0.028c-1.71-0.041-3.422-0.068-5.137-0.068c-0.112-0.001-0.226,0-0.316,0
				c-1.902,0-3.798,0.026-5.688,0.076c-0.015,0-0.031,0.001-0.046,0.001c-42.894,1.126-82.725,14.864-115.924,37.619
				c-0.073,0.05-0.146,0.101-0.218,0.151c-1.302,0.894-2.595,1.801-3.875,2.723c-0.536,0.385-1.068,0.776-1.601,1.166
				c-0.789,0.578-1.576,1.16-2.356,1.749c-0.864,0.651-1.723,1.31-2.578,1.973c-0.406,0.316-0.811,0.633-1.215,0.953
				c-1.134,0.893-2.26,1.797-3.377,2.714c-0.066,0.054-0.13,0.108-0.196,0.162c-8.13,6.688-15.821,13.987-22.968,21.888
				c-0.2,0.22-0.381,0.45-0.552,0.686c-34.178,38.079-55.07,88.313-55.235,143.317c-0.477,9.882-1.096,42.931,8.457,83.369
				c-4.649,1.819-8.522,5.122-11.054,9.508c-1.668,2.888-2.617,6.048-2.875,9.277c-27.271,9.078-43.135,38.045-35.6,66.166
				l20.864,77.862c3.788,14.14,12.856,25.959,25.534,33.278c8.444,4.877,17.816,7.367,27.312,7.366
				c3.681,0,7.383-0.384,11.055-1.139c4.1,5.931,10.924,9.558,18.199,9.558c1.888-0.001,3.806-0.245,5.716-0.756l40.607-10.881
				c11.773-3.154,18.788-15.299,15.634-27.075l-3.79-14.144c-1.155-4.317-5.593-6.88-9.911-5.721
				c-4.317,1.155-6.878,5.594-5.721,9.911l3.789,14.142c0.845,3.156-1.035,6.41-4.19,7.256l-40.608,10.882
				c-3.153,0.846-6.406-1.034-7.253-4.188l-0.145-0.539c0-0.002-0.001-0.005-0.001-0.008s-0.002-0.005-0.002-0.008l-45.041-168.1
				c0-0.001,0-0.002,0-0.002s0-0.001-0.001-0.002l-0.147-0.547c-0.41-1.529-0.2-3.124,0.591-4.494c0.791-1.37,2.068-2.35,3.598-2.76
				l27.217-7.293l11.997-3.214c0.005-0.001,0.01-0.003,0.015-0.004l1.378-0.369c3.155-0.842,6.41,1.035,7.257,4.188l34.713,129.552
				c1.155,4.316,5.593,6.88,9.911,5.721c4.317-1.156,6.878-5.594,5.721-9.911l-34.713-129.554
				c-2.545-9.484-10.927-15.87-20.243-16.346c-8.253-35.284-7.377-63.228-7.099-68.719l0.023-0.412
				c0.018-0.396,0.027-0.795,0.027-1.191c0-42.016,15.842-80.407,41.857-109.531c0.681-0.763,1.369-1.517,2.063-2.266
				c0.269-0.289,0.536-0.579,0.806-0.866c0.75-0.797,1.508-1.585,2.272-2.366c0.213-0.217,0.423-0.437,0.637-0.653
				c0.93-0.94,1.87-1.869,2.82-2.785c0.046-0.045,0.092-0.091,0.138-0.135c29.387-28.241,68.275-44.695,109.052-45.934
				c0.145-0.004,0.287-0.013,0.432-0.017c1.444-0.04,2.89-0.061,4.338-0.063c0.006,0,0.014,0,0.021,0
				c0.024,0,0.046,0.001,0.063,0.001l0.273,0.001l0.274-0.001c0.011,0,0.033-0.001,0.058-0.001c1.455,0.001,2.909,0.023,4.361,0.064
				c0.135,0.003,0.27,0.012,0.405,0.016c42.232,1.276,82.439,18.875,112.169,48.985c0.068,0.069,0.136,0.139,0.204,0.209
				c0.918,0.933,1.827,1.879,2.725,2.837c0.148,0.158,0.293,0.316,0.44,0.474c0.826,0.888,1.643,1.784,2.451,2.692
				c25.914,29.101,41.688,67.415,41.688,109.34c0,0.396,0.01,0.795,0.028,1.209l0.018,0.363c0.286,5.592,1.172,33.711-7.205,69.218
				c-1.533-0.331-3.094-0.506-4.659-0.506c-9.982,0-18.76,6.739-21.346,16.387l-45.336,169.205
				c-1.529,5.704-0.744,11.663,2.207,16.776s7.719,8.77,13.424,10.298l40.608,10.882c1.873,0.503,3.801,0.756,5.73,0.756
				c0.001,0,0.001,0,0.001,0c7.402,0,14.135-3.71,18.177-9.559c3.629,0.744,7.315,1.13,11.001,1.13
				c24.742,0,46.499-16.708,52.906-40.631l20.864-77.863C517.663,356.163,501.794,327.192,474.517,318.118z M81.165,486.187
				c-8.548,1.244-17.207-0.389-24.804-4.775c-8.933-5.157-15.323-13.486-17.994-23.451l-20.864-77.863
				c-5.11-19.069,5.052-38.688,22.95-45.842L81.165,486.187z M77.98,216.622c0,0.146-0.003,0.292-0.008,0.372l-0.021,0.38
				c-0.298,5.886-1.236,35.535,7.375,72.715l-7.203,1.93l-11.122,2.979c-8.977-38.333-8.333-69.385-7.885-78.423
				c0.006-0.127,0.01-0.255,0.01-0.383c0.101-48.185,17.394-92.427,46.042-126.917l13.379,13.378
				C93.202,133.778,77.98,173.459,77.98,216.622z M387.796,89.795c-0.592-0.601-1.189-1.199-1.79-1.791
				c-0.435-0.429-0.872-0.857-1.311-1.281c-0.667-0.645-1.34-1.285-2.018-1.92c-0.377-0.353-0.753-0.706-1.132-1.055
				c-0.778-0.717-1.564-1.427-2.354-2.131c-0.281-0.249-0.561-0.501-0.843-0.749c-0.94-0.826-1.889-1.642-2.846-2.449
				c-0.134-0.112-0.265-0.226-0.399-0.338c-30.305-25.421-69.03-41.113-111.324-42.196c-1.519-0.04-3.04-0.06-4.564-0.062
				c-0.023,0-0.108,0.001-0.131,0.001h-0.286c-0.05-0.002-0.118-0.028-0.151-0.001c-1.523,0.001-3.046,0.022-4.564,0.062
				c-40.72,1.043-78.133,15.632-107.908,39.405c-0.053,0.042-0.105,0.084-0.156,0.126c-1.055,0.844-2.101,1.698-3.136,2.566
				c-0.255,0.213-0.506,0.429-0.76,0.643c-0.831,0.703-1.657,1.412-2.476,2.131c-0.397,0.348-0.79,0.7-1.184,1.052
				c-0.672,0.6-1.341,1.203-2.003,1.814c-0.488,0.449-0.972,0.902-1.455,1.356c-0.565,0.532-1.127,1.065-1.685,1.604
				c-0.542,0.523-1.08,1.05-1.616,1.579c-0.494,0.489-0.986,0.981-1.474,1.475c-0.3,0.303-0.606,0.599-0.904,0.905l-13.299-13.299
				c1.697-1.738,3.416-3.453,5.174-5.129c0.052-0.05,0.104-0.098,0.155-0.147c1.05-0.998,2.111-1.983,3.183-2.957
				c0.208-0.19,0.418-0.378,0.627-0.565c0.916-0.826,1.838-1.644,2.77-2.454c0.432-0.374,0.866-0.745,1.3-1.116
				c0.716-0.613,1.436-1.222,2.162-1.826c0.741-0.614,1.487-1.22,2.235-1.823c0.429-0.347,0.859-0.696,1.291-1.039
				c1.178-0.932,2.363-1.855,3.56-2.759c0.011-0.008,0.021-0.016,0.031-0.024c34.423-25.996,76.654-40.429,120.22-40.43
				c0.126,0.003,0.254,0.004,0.377,0.002l0.053-0.001c0.002,0,0.004,0,0.006,0c2.038,0.001,4.07,0.045,6.097,0.108
				c0.745,0.023,1.49,0.054,2.234,0.086c1.226,0.051,2.447,0.119,3.668,0.191c0.97,0.059,1.94,0.112,2.908,0.186
				c0.374,0.028,0.747,0.068,1.12,0.097c47.789,3.906,92.935,25.057,126.672,59.578l-13.329,13.323
				C388.297,90.291,388.044,90.046,387.796,89.795z M422.844,453.48l-9.957,37.158c-0.69,2.584-3.039,4.39-5.709,4.389
				c-0.516,0-1.034-0.068-1.542-0.204l-40.609-10.883c-1.529-0.409-2.807-1.389-3.597-2.759c-0.79-1.369-1.001-2.965-0.591-4.494
				l45.336-169.205c0.694-2.586,3.044-4.393,5.715-4.393c0.516,0,1.034,0.068,1.541,0.204l6.852,1.836
				c0.009,0.002,0.015,0.005,0.024,0.008l31.744,8.505l1.79,0.48c0.094,0.03,0.189,0.059,0.259,0.08
				c0.022,0.006,0.043,0.008,0.064,0.014c3.078,0.899,4.898,4.102,4.065,7.213l-0.136,0.508c-0.004,0.014-0.01,0.028-0.014,0.042
				L422.844,453.48z M494.495,380.098l-20.864,77.863c-4.517,16.86-19.846,28.636-37.276,28.636c-1.844,0-3.69-0.134-5.524-0.4
				l40.716-151.952C489.447,341.4,499.605,361.028,494.495,380.098z"/>
			<path d="M365.922,304.62c-4.319-1.159-8.754,1.405-9.911,5.721l-37.188,138.79c-1.157,4.317,1.405,8.754,5.721,9.911
				c0.701,0.189,1.407,0.278,2.099,0.278c3.573,0,6.842-2.384,7.81-6l37.188-138.79C372.8,310.213,370.239,305.775,365.922,304.62z"
				/>
			<path d="M155.99,310.341c-1.157-4.318-5.597-6.881-9.91-5.722c-4.318,1.156-6.879,5.593-5.722,9.91l37.184,138.79
				c0.968,3.616,4.238,6.001,7.81,6.001c0.694,0,1.398-0.09,2.098-0.278c4.318-1.155,6.879-5.593,5.722-9.911L155.99,310.341z"/>
		</g>
	</g>
</g>
</svg>